<svg width="803" height="136" viewBox="0 0 803 136" fill="none" xmlns="http://www.w3.org/2000/svg">
<g clip-path="url(#clip0_860_1196)">
<path d="M114.992 107.095L86.1481 133.405C82.7678 136.495 77.5455 136.207 74.5093 132.746L2.10548 50.4368C-0.930742 46.9961 -0.647361 41.6805 2.75321 38.5901L42.7504 2.14351C46.1307 -0.946927 51.353 -0.658485 54.3892 2.80281L77.2419 28.6595L72.222 33.2333C65.4411 39.4142 64.8743 50.0041 70.9468 56.9061L115.012 107.095H114.992Z" fill="#5527AD"/>
<path d="M211.037 91.8067L207.475 95.062L202.515 99.5741L164.886 133.857C161.506 136.948 156.284 136.659 153.248 133.198L80.8438 50.9099C77.8075 47.4692 78.0909 42.1537 81.4915 39.0632L121.489 2.59603C124.869 -0.494412 130.091 -0.205971 133.128 3.25532L162.984 37.1884L203.244 82.9475L211.037 91.8067Z" fill="#A994E6"/>
<path d="M248.666 57.5235L219.782 83.8541L211.989 74.9948L171.729 29.2357L200.613 2.90511C203.993 -0.18533 209.216 0.103111 212.252 3.5644L249.314 45.6974C252.35 49.1381 252.067 54.4537 248.666 57.5441V57.5235Z" fill="#5527AD"/>
<path d="M291.295 56.3079H274.899V44.3788H291.376V32.0376C291.376 16.606 301.861 8.42664 315.646 8.42664C320.24 8.42664 324.673 9.68341 328.681 11.6819L324.086 23.2814C321.718 21.9422 319.249 21.0356 316.88 21.0356C309.998 21.0356 305.646 24.7854 305.646 33.4592V44.3788H328.033V56.3079H305.646V127.738H291.295V56.3079Z" fill="#EDF0F7"/>
<path d="M343.336 44.3788H356.857V60.7375C360.784 48.726 371.451 42.9572 381.046 42.9572C385.884 42.9572 390.883 44.3788 394.567 47.5516L388.171 59.2335C385.378 57.647 382.26 56.7199 378.981 56.7199C368.658 56.7199 356.776 65.4762 356.776 87.5831V127.718H343.336V44.3788Z" fill="#EDF0F7"/>
<path d="M394.952 86.4294C394.952 63.4777 407.745 42.9572 432.824 42.9572C460.292 42.9572 469.218 65.3938 469.218 82.5972C469.218 85.6876 468.894 89.0253 468.57 90.2821H409.627C410.7 106.311 418.979 116.324 434.302 116.324C443.329 116.324 450.049 113.646 456.851 106.311L466.526 114.903C457.417 124.833 447.6 129.16 434.221 129.16C408.312 129.16 394.952 109.896 394.952 86.45V86.4294ZM455.454 79.9188C455.454 78.0852 455.454 76.3339 455.13 74.6651C453.733 64.3224 446.527 54.8863 432.743 54.8863C418.959 54.8863 411.186 65.3113 409.627 79.9188H455.454Z" fill="#EDF0F7"/>
<path d="M481.747 86.4294C481.747 63.4777 494.54 42.9572 519.619 42.9572C547.087 42.9572 556.013 65.3938 556.013 82.5972C556.013 85.6876 555.689 89.0253 555.365 90.2821H496.422C497.495 106.311 505.774 116.324 521.097 116.324C530.104 116.324 536.824 113.646 543.646 106.311L553.321 114.903C544.233 124.833 534.395 129.16 521.016 129.16C495.106 129.16 481.747 109.896 481.747 86.45V86.4294ZM542.229 79.9188C542.229 78.0852 542.229 76.3339 541.905 74.6651C540.508 64.3224 533.302 54.8863 519.538 54.8863C505.774 54.8863 497.981 65.3113 496.422 79.9188H542.249H542.229Z" fill="#EDF0F7"/>
<path d="M571.599 110.473V9.84827H585.525V106.723C585.525 112.307 586.922 116.407 593.642 116.407C595.282 116.407 597.569 116.159 599.958 115.747L600.039 127.676C596.274 128.501 591.355 129.18 587.408 129.18C576.498 129.18 571.579 123.247 571.579 110.494L571.599 110.473Z" fill="#EDF0F7"/>
<path d="M679.547 76.9314V127.738H667.989L667.078 112.884C661.248 123.721 649.954 129.16 638.72 129.16C622.081 129.16 609.957 119.559 609.957 103.035C609.957 86.5118 623.559 79.1771 643.74 79.1771H666.936C666.855 62.9008 661.613 55.3189 646.108 55.3189C635.704 55.3189 628.741 60.5727 623.802 68.34L613.155 60.4903C621.11 49.3853 630.947 42.9778 645.946 42.9778C667.422 42.9778 679.547 56.2461 679.547 76.9314ZM666.916 94.9384V89.5198H644.529C630.765 89.5198 624.207 95.1032 624.207 103.53C624.207 111.956 630.279 117.045 641.412 117.045C655.257 117.045 664.204 107.444 666.916 94.9384Z" fill="#EDF0F7"/>
<path d="M688.15 44.3788H702.987L719.544 106.291L739.381 44.3788H751.667L771.423 106.208L788.143 44.3788H802.98L778.548 127.738H765.756L745.514 64.0752L725.192 127.738H712.399L688.129 44.3788H688.15Z" fill="#EDF0F7"/>
</g>
<defs>
<clipPath id="clip0_860_1196">
<rect width="803" height="136" fill="white"/>
</clipPath>
</defs>
</svg>
