<svg width="804" height="136" viewBox="0 0 804 136" fill="none" xmlns="http://www.w3.org/2000/svg">
<path d="M115.452 107.095L86.6076 133.405C83.2273 136.495 78.005 136.207 74.9687 132.746L2.56495 50.4368C-0.47127 46.9961 -0.187889 41.6805 3.21268 38.5901L43.2099 2.14351C46.5902 -0.946927 51.8125 -0.658485 54.8487 2.80281L77.7013 28.6595L72.6815 33.2333C65.9006 39.4142 65.3338 50.0041 71.4062 56.9061L115.472 107.095H115.452Z" fill="#FEFEFE"/>
<path d="M211.497 91.8067L207.934 95.062L202.975 99.5741L165.346 133.857C161.966 136.948 156.744 136.659 153.708 133.198L81.3037 50.9099C78.2675 47.4692 78.5509 42.1537 81.9515 39.0632L121.949 2.59603C125.329 -0.494412 130.551 -0.205971 133.587 3.25532L163.444 37.1884L203.704 82.9475L211.497 91.8067Z" fill="white"/>
<path d="M249.126 57.5235L220.241 83.8541L212.448 74.9948L172.188 29.2357L201.073 2.90511C204.453 -0.18533 209.675 0.103111 212.711 3.5644L249.774 45.6974C252.81 49.1381 252.526 54.4537 249.126 57.5441V57.5235Z" fill="#FEFEFE"/>
<path d="M291.755 56.3079H275.359V44.3788H291.835V32.0376C291.835 16.606 302.321 8.42664 316.105 8.42664C320.7 8.42664 325.133 9.68341 329.141 11.6819L324.546 23.2814C322.177 21.9422 319.708 21.0356 317.34 21.0356C310.458 21.0356 306.106 24.7854 306.106 33.4592V44.3788H328.493V56.3079H306.106V127.738H291.755V56.3079Z" fill="white"/>
<path d="M343.795 44.3788H357.317V60.7375C361.244 48.726 371.911 42.9572 381.505 42.9572C386.343 42.9572 391.343 44.3788 395.027 47.5516L388.63 59.2335C385.837 57.647 382.72 56.7199 379.441 56.7199C369.118 56.7199 357.236 65.4762 357.236 87.5831V127.718H343.795V44.3788Z" fill="white"/>
<path d="M395.411 86.4294C395.411 63.4777 408.204 42.9572 433.283 42.9572C460.751 42.9572 469.677 65.3938 469.677 82.5972C469.677 85.6876 469.353 89.0253 469.029 90.2821H410.086C411.159 106.311 419.438 116.324 434.761 116.324C443.788 116.324 450.508 113.646 457.31 106.311L466.985 114.903C457.876 124.833 448.059 129.16 434.68 129.16C408.771 129.16 395.411 109.896 395.411 86.45V86.4294ZM455.913 79.9188C455.913 78.0852 455.913 76.3339 455.589 74.6651C454.192 64.3224 446.986 54.8863 433.202 54.8863C419.418 54.8863 411.645 65.3113 410.086 79.9188H455.913Z" fill="white"/>
<path d="M482.207 86.4294C482.207 63.4777 494.999 42.9572 520.078 42.9572C547.546 42.9572 556.473 65.3938 556.473 82.5972C556.473 85.6876 556.149 89.0253 555.825 90.2821H496.882C497.954 106.311 506.233 116.324 521.556 116.324C530.563 116.324 537.284 113.646 544.105 106.311L553.78 114.903C544.692 124.833 534.855 129.16 521.475 129.16C495.566 129.16 482.207 109.896 482.207 86.45V86.4294ZM542.688 79.9188C542.688 78.0852 542.688 76.3339 542.364 74.6651C540.968 64.3224 533.762 54.8863 519.997 54.8863C506.233 54.8863 498.44 65.3113 496.882 79.9188H542.708H542.688Z" fill="white"/>
<path d="M572.059 110.473V9.84827H585.985V106.723C585.985 112.307 587.382 116.407 594.102 116.407C595.741 116.407 598.029 116.159 600.417 115.747L600.498 127.676C596.733 128.501 591.815 129.18 587.867 129.18C576.957 129.18 572.039 123.247 572.039 110.494L572.059 110.473Z" fill="white"/>
<path d="M680.006 76.9314V127.738H668.448L667.538 112.884C661.708 123.721 650.413 129.16 639.179 129.16C622.541 129.16 610.416 119.559 610.416 103.035C610.416 86.5118 624.018 79.1771 644.199 79.1771H667.396C667.315 62.9008 662.072 55.3189 646.567 55.3189C636.163 55.3189 629.2 60.5727 624.261 68.34L613.614 60.4903C621.569 49.3853 631.406 42.9778 646.405 42.9778C667.882 42.9778 680.006 56.2461 680.006 76.9314ZM667.376 94.9384V89.5198H644.989C631.224 89.5198 624.666 95.1032 624.666 103.53C624.666 111.956 630.738 117.045 641.871 117.045C655.716 117.045 664.663 107.444 667.376 94.9384Z" fill="white"/>
<path d="M688.609 44.3788H703.446L720.004 106.291L739.84 44.3788H752.127L771.883 106.208L788.602 44.3788H803.439L779.008 127.738H766.215L745.973 64.0752L725.651 127.738H712.858L688.589 44.3788H688.609Z" fill="white"/>
</svg>
