<svg width="804" height="136" viewBox="0 0 804 136" fill="none" xmlns="http://www.w3.org/2000/svg">
<path d="M115.222 107.095L86.3776 133.405C82.9973 136.495 77.775 136.207 74.7388 132.746L2.33497 50.4368C-0.70125 46.9961 -0.417869 41.6805 2.9827 38.5901L42.9799 2.14351C46.3602 -0.946927 51.5825 -0.658485 54.6187 2.80281L77.4714 28.6595L72.4515 33.2333C65.6706 39.4142 65.1038 50.0041 71.1763 56.9061L115.242 107.095H115.222Z" fill="black"/>
<path d="M211.267 91.8067L207.704 95.062L202.745 99.5741L165.116 133.857C161.736 136.948 156.513 136.659 153.477 133.198L81.0733 50.9099C78.037 47.4692 78.3204 42.1537 81.721 39.0632L121.718 2.59603C125.098 -0.494412 130.321 -0.205971 133.357 3.25532L163.213 37.1884L203.474 82.9475L211.267 91.8067Z" fill="black"/>
<path d="M248.896 57.5235L220.011 83.8541L212.218 74.9948L171.958 29.2357L200.843 2.90511C204.223 -0.18533 209.445 0.103111 212.481 3.5644L249.544 45.6974C252.58 49.1381 252.296 54.4537 248.896 57.5441V57.5235Z" fill="black"/>
<path d="M291.525 56.3079H275.129V44.3788H291.605V32.0376C291.605 16.606 302.091 8.42664 315.875 8.42664C320.47 8.42664 324.903 9.68341 328.911 11.6819L324.316 23.2814C321.947 21.9422 319.478 21.0356 317.11 21.0356C310.228 21.0356 305.876 24.7854 305.876 33.4592V44.3788H328.263V56.3079H305.876V127.738H291.525V56.3079Z" fill="black"/>
<path d="M343.565 44.3788H357.087V60.7375C361.014 48.726 371.681 42.9572 381.275 42.9572C386.113 42.9572 391.113 44.3788 394.797 47.5516L388.4 59.2335C385.607 57.647 382.49 56.7199 379.211 56.7199C368.888 56.7199 357.006 65.4762 357.006 87.5831V127.718H343.565V44.3788Z" fill="black"/>
<path d="M395.182 86.4294C395.182 63.4777 407.974 42.9572 433.053 42.9572C460.521 42.9572 469.448 65.3938 469.448 82.5972C469.448 85.6876 469.124 89.0253 468.8 90.2821H409.857C410.93 106.311 419.208 116.324 434.531 116.324C443.559 116.324 450.279 113.646 457.08 106.311L466.756 114.903C457.647 124.833 447.83 129.16 434.45 129.16C408.541 129.16 395.182 109.896 395.182 86.45V86.4294ZM455.683 79.9188C455.683 78.0852 455.683 76.3339 455.36 74.6651C453.963 64.3224 446.757 54.8863 432.972 54.8863C419.188 54.8863 411.415 65.3113 409.857 79.9188H455.683Z" fill="black"/>
<path d="M481.977 86.4294C481.977 63.4777 494.769 42.9572 519.848 42.9572C547.316 42.9572 556.243 65.3938 556.243 82.5972C556.243 85.6876 555.919 89.0253 555.595 90.2821H496.652C497.724 106.311 506.003 116.324 521.326 116.324C530.333 116.324 537.054 113.646 543.875 106.311L553.55 114.903C544.462 124.833 534.625 129.16 521.245 129.16C495.336 129.16 481.977 109.896 481.977 86.45V86.4294ZM542.458 79.9188C542.458 78.0852 542.458 76.3339 542.134 74.6651C540.738 64.3224 533.532 54.8863 519.767 54.8863C506.003 54.8863 498.21 65.3113 496.652 79.9188H542.478H542.458Z" fill="black"/>
<path d="M571.829 110.473V9.84827H585.755V106.723C585.755 112.307 587.152 116.407 593.872 116.407C595.511 116.407 597.799 116.159 600.187 115.747L600.268 127.676C596.503 128.501 591.585 129.18 587.637 129.18C576.727 129.18 571.809 123.247 571.809 110.494L571.829 110.473Z" fill="black"/>
<path d="M679.777 76.9314V127.738H668.219L667.308 112.884C661.478 123.721 650.184 129.16 638.95 129.16C622.311 129.16 610.187 119.559 610.187 103.035C610.187 86.5118 623.789 79.1771 643.97 79.1771H667.166C667.085 62.9008 661.843 55.3189 646.338 55.3189C635.934 55.3189 628.971 60.5727 624.032 68.34L613.385 60.4903C621.34 49.3853 631.177 42.9778 646.176 42.9778C667.652 42.9778 679.777 56.2461 679.777 76.9314ZM667.146 94.9384V89.5198H644.759C630.995 89.5198 624.437 95.1032 624.437 103.53C624.437 111.956 630.509 117.045 641.642 117.045C655.487 117.045 664.434 107.444 667.146 94.9384Z" fill="black"/>
<path d="M688.379 44.3788H703.216L719.773 106.291L739.61 44.3788H751.896L771.652 106.208L788.372 44.3788H803.209L778.777 127.738H765.985L745.743 64.0752L725.421 127.738H712.628L688.358 44.3788H688.379Z" fill="black"/>
</svg>
