<svg width="826" height="447" viewBox="0 0 826 447" fill="none" xmlns="http://www.w3.org/2000/svg">
<path d="M377.712 351.735L283.057 438.073C271.964 448.215 254.827 447.268 244.863 435.91L7.26396 165.807C-2.69967 154.516 -1.76973 137.072 9.38954 126.931L140.644 7.32809C151.737 -2.81346 168.874 -1.86692 178.838 9.49162L253.831 94.3426L237.357 109.352C215.105 129.635 213.245 164.387 233.173 187.036L377.778 351.735H377.712Z" fill="#5527AD"/>
<path d="M692.891 301.565L681.2 312.248L664.927 327.055L541.444 439.558C530.351 449.7 513.214 448.753 503.25 437.395L265.651 167.359C255.687 156.068 256.617 138.625 267.776 128.483L399.03 8.81271C410.123 -1.32884 427.261 -0.382298 437.224 10.9762L535.2 122.33L667.318 272.493L692.891 301.565Z" fill="#A994E6"/>
<path d="M816.375 189.062L721.588 275.468L696.014 246.395L563.896 96.2326L658.684 9.82662C669.777 -0.314927 686.914 0.631618 696.878 11.9902L818.5 150.253C828.464 161.544 827.534 178.988 816.375 189.129V189.062Z" fill="#5527AD"/>
</svg>
