<svg width="826" height="447" viewBox="0 0 826 447" fill="none" xmlns="http://www.w3.org/2000/svg">
<path d="M377.445 352.027L282.791 438.365C271.698 448.507 254.56 447.56 244.597 436.201L6.99736 166.098C-2.96627 154.807 -2.03633 137.364 9.12293 127.222L140.377 7.61959C151.47 -2.52196 168.607 -1.57541 178.571 9.78312L253.564 94.6341L237.091 109.644C214.839 129.927 212.979 164.678 232.906 187.328L377.511 352.027H377.445Z" fill="black"/>
<path d="M692.625 301.857L680.934 312.539L664.66 327.346L541.177 439.85C530.085 449.991 512.947 449.045 502.983 437.686L265.384 167.65C255.42 156.359 256.35 138.916 267.51 128.774L398.764 9.10421C409.857 -1.03734 426.994 -0.0907939 436.958 11.2677L534.933 122.622L667.051 272.784L692.625 301.857Z" fill="black"/>
<path d="M816.108 189.353L721.321 275.759L695.748 246.687L563.63 96.5241L658.417 10.1181C669.51 -0.0234233 686.648 0.923122 696.611 12.2817L818.234 150.545C828.197 161.836 827.268 179.279 816.108 189.421V189.353Z" fill="black"/>
</svg>
