<svg width="826" height="448" viewBox="0 0 826 448" fill="none" xmlns="http://www.w3.org/2000/svg">
<path d="M378.104 352.404L283.449 438.743C272.356 448.884 255.219 447.938 245.255 436.579L7.65605 166.476C-2.30758 155.185 -1.37764 137.741 9.78162 127.6L141.036 7.99728C152.129 -2.14427 169.266 -1.19773 179.23 10.1608L254.223 95.0118L237.749 110.021C215.497 130.304 213.637 165.056 233.565 187.706L378.17 352.404H378.104Z" fill="#FEFEFE"/>
<path d="M693.284 302.235L681.593 312.917L665.319 327.724L541.837 440.227C530.744 450.369 513.606 449.422 503.643 438.064L266.043 168.028C256.08 156.737 257.01 139.294 268.169 129.152L399.423 9.4819C410.516 -0.659654 427.653 0.286892 437.617 11.6454L535.593 123L667.71 273.162L693.284 302.235Z" fill="white"/>
<path d="M816.767 189.731L721.98 276.137L696.406 247.065L564.289 96.9023L659.076 10.4963C670.169 0.35475 687.306 1.3013 697.27 12.6598L818.893 150.923C828.856 162.214 827.926 179.657 816.767 189.799V189.731Z" fill="#FEFEFE"/>
</svg>
